{"title":"The World According To Garp (1982).avi","uid":6175072,"size":2266326292,"categoryP":"video","categoryS":"movies","magnet":"?xt=urn:btih:d2231a2e040bc4ba041b4c622f7c26a2ee91af4d&amp;dn=The+World+According+To+Garp+%281982%29.avi&amp;tr=udp%3A%2F%2Ftracker.openbittorrent.com%3A80&amp;tr=udp%3A%2F%2Fopen.demonii.com%3A1337&amp;tr=udp%3A%2F%2Ftracker.coppersurfer.tk%3A6969&amp;tr=udp%3A%2F%2Fexodus.desync.com%3A6969","seeders":0,"leechers":1,"uploader":"Beebe85","files":-1,"time":1297743386,"description":"The World According To Garp (1982)\n\n\n\n &lt;a href=&quot;\nhttp://www.imdb.com/title/tt0084917/&quot; rel=&quot;nofollow&quot; target=&quot;_NEW&quot;&gt;\nhttp://www.imdb.com/title/tt0084917/&lt;/a&gt;\n\n\n\n\nVideo\nID                               : 0\nFormat                           : MPEG-4 Visual\nFormat profile                   : Advanced Simple@L5\nFormat settings, BVOP            : Yes\nFormat settings, QPel            : No\nFormat settings, GMC             : No warppoints\nFormat settings, Matrix          : Default (MPEG)\nCodec ID                         : XVID\nCodec ID/Hint                    : XviD\nDuration                         : 2h 16mn\nBit rate                         : 2 019 Kbps\nWidth                            : 720 pixels\nHeight                           : 404 pixels\nDisplay aspect ratio             : 16:9\nFrame rate                       : 29.970 fps\nColor space                      : YUV\nChroma subsampling               : 4:2:0\nBit depth                        : 8 bits\nScan type                        : Progressive\nBits/(Pixel*Frame)               : 0.232\nStream size                      : 1.92 GiB (91%)\nWriting library                  : XviD 1.2.1 (UTC 2008-12-04)\n\nAudio\nID                               : 1\nFormat                           : AC-3\nFormat/Info                      : Audio Coding 3\nFormat profile                   : Dolby Digital\nMode extension                   : CM (complete main)\nCodec ID                         : 2000\nDuration                         : 2h 16mn\nBit rate mode                    : Constant\nBit rate                         : 192 Kbps\nChannel(s)                       : 2 channels\nChannel positions                : Front: L R\nSampling rate                    : 48.0 KHz\nBit depth                        : 16 bits\nVideo delay                      : 33ms\nStream size                      : 187 MiB (9%)\nAlignment                        : Split accross interleaves\nInterleave, duration             : 500 ms (14.98 video frames)\nInterleave, preload duration     : 500 ms\n","torrent":{"xt":"urn:btih:d2231a2e040bc4ba041b4c622f7c26a2ee91af4d","amp;dn":"The+World+According+To+Garp+%281982%29.avi","amp;tr":["udp%3A%2F%2Ftracker.openbittorrent.com%3A80","udp%3A%2F%2Fopen.demonii.com%3A1337","udp%3A%2F%2Ftracker.coppersurfer.tk%3A6969","udp%3A%2F%2Fexodus.desync.com%3A6969"],"infoHash":"d2231a2e040bc4ba041b4c622f7c26a2ee91af4d","infoHashBuffer":{"type":"Buffer","data":[210,35,26,46,4,11,196,186,4,27,76,98,47,124,38,162,238,145,175,77]},"announce":[],"urlList":[]}}